<?xml version="1.0" encoding="UTF-8" standalone="no"?>
<svg
   xmlns:dc="http://purl.org/dc/elements/1.1/"
   xmlns:cc="http://creativecommons.org/ns#"
   xmlns:rdf="http://www.w3.org/1999/02/22-rdf-syntax-ns#"
   xmlns:svg="http://www.w3.org/2000/svg"
   xmlns="http://www.w3.org/2000/svg"
   xmlns:sodipodi="http://sodipodi.sourceforge.net/DTD/sodipodi-0.dtd"
   xmlns:inkscape="http://www.inkscape.org/namespaces/inkscape"
   version="1.1"
   x="0px"
   y="0px"
   viewBox="0 0 100 125"
   style="enable-background:new 0 0 100 100;"
   xml:space="preserve"
   id="svg18"
   sodipodi:docname="hamlet.svg"
   inkscape:version="0.92.4 (5da689c313, 2019-01-14)"><metadata
     id="metadata24"><rdf:RDF><cc:Work
         rdf:about=""><dc:format>image/svg+xml</dc:format><dc:type
           rdf:resource="http://purl.org/dc/dcmitype/StillImage" /><dc:title></dc:title></cc:Work></rdf:RDF></metadata><defs
     id="defs22" /><sodipodi:namedview
     pagecolor="#ffffff"
     bordercolor="#666666"
     borderopacity="1"
     objecttolerance="10"
     gridtolerance="10"
     guidetolerance="10"
     inkscape:pageopacity="0"
     inkscape:pageshadow="2"
     inkscape:window-width="2546"
     inkscape:window-height="1545"
     id="namedview20"
     showgrid="false"
     inkscape:zoom="7.552"
     inkscape:cx="68.116069"
     inkscape:cy="66.085339"
     inkscape:window-x="298"
     inkscape:window-y="74"
     inkscape:window-maximized="0"
     inkscape:current-layer="svg18" /><path
     d="M78.9,87.3C67.9,75.1,62.3,63,60.1,57.3c-0.2-1.4-0.5-3.3-0.6-5.7c-0.1,0-0.1,0-0.2,0c-1.3,0-2.6-0.3-4.1-1  c-2-0.9-4.4-2.6-7.2-5.1c-0.9-0.8-1.5-1.9-1.5-3.1c-0.1-1.2,0.3-2.4,1.1-3.3c1.7-1.9,4.6-2.1,6.5-0.4c0.7,0.7,1.5,1.2,2.1,1.8  c-0.6-2.4-1.6-5.3-2.6-7.9c-0.9-2.1-0.1-4.4,1.7-5.6c-1.4-0.1-2.8,0.2-4.1,1c-1.6,0.9-6.8,6.7-7.3,7.2c-4.8,4.2-7.1,4.6-7.6,4.6  c-0.3-0.5-1.3-2.9-0.2-10.9c0.3-2.2-1.2-4.2-3.4-4.5c-2.2-0.3-4.2,1.2-4.5,3.4c-0.9,6.9-1.5,16.4,4.8,19.2c1,0.5,2.1,0.7,3.2,0.7  c1.8,0,3.9-0.6,6.1-1.8c-0.3,2-0.4,3.9-0.4,5.8c0,0.2,0,0.4,0,0.6c-0.1,3.2-0.2,10,0.8,18.5C44,82.3,46.2,90.7,46.3,91  c0.5,1.8,2.1,2.9,3.8,2.9c0.3,0,0.7,0,1-0.1c2.1-0.6,3.4-2.7,2.8-4.8c0-0.1-2.1-8.1-3.5-19.2c-0.3-2.9-0.6-5.6-0.7-8  c1.2,0.2,2.4,0.3,3.6,0.3c2.8,6.8,8.8,18.6,19.6,30.6c0.8,0.9,1.9,1.3,2.9,1.3c1,0,1.9-0.3,2.7-1C80.3,91.4,80.4,88.9,78.9,87.3z"
     id="path2" /><path
     d="M54.6,32c1.3,3.2,2.5,7,3.1,9.7l0.3,1.5l-1.2-0.9c-1-0.7-2.2-1.7-3.5-2.8c-0.6-0.6-1.4-0.8-2.2-0.8c-0.9,0-1.9,0.4-2.5,1.1  c-0.6,0.7-0.9,1.5-0.8,2.4c0.1,0.9,0.5,1.7,1.1,2.3c2.8,2.4,5,4.1,6.9,5c2.6,1.2,4.8,1.2,6.6,0c3.4-2.5,2.4-8,1.1-12.5  c-1.1-3.9-2.6-7.4-2.6-7.5c-0.3-0.8-1-1.5-1.8-1.8c-0.8-0.3-1.7-0.3-2.6,0C54.7,28.3,53.9,30.3,54.6,32z"
     id="path4" /><circle
     cx="54.1"
     cy="14.8"
     r="9.5"
     id="circle6" /><g
     id="g12"><g
       id="g10"><path
         d="M40.8,18.8C40,18.7,39.2,18,39,17.1c0-0.2-0.1-0.4-0.1-0.6c0,0,0,0,0,0c0-0.7-0.1-1.4-0.2-2.1c-1.1-4.7-6-7.5-10.7-6.2    c-4.2,1.2-6.8,5.5-6,9.8c0.4,2,1.5,3.7,3,4.9c1.5,1.3,3.8,1.1,5.1-0.5c0.4-0.5,0.9-0.8,1.6-1c1.5-0.4,3,0.5,3.4,2l0.1,0.3    c0.1,0.5,0.6,0.9,1.2,0.9c0.7-0.1,1.2-0.7,1-1.4c0.1,0.6,0.8,1,1.4,0.8s1-0.8,0.8-1.4c0.2,0.7,0.9,1,1.5,0.8    c0.5-0.2,0.8-0.8,0.6-1.3l-0.1-0.3l-0.3-1.3L40.8,18.8C40.8,18.8,40.8,18.8,40.8,18.8z M35.7,17.7c-1.1,0.3-2.2-0.4-2.5-1.5    c-0.3-1.1,0.4-2.2,1.5-2.5s2.2,0.4,2.5,1.5C37.5,16.4,36.8,17.5,35.7,17.7z"
         id="path8" /></g></g></svg>